<svg xmlns="http://www.w3.org/2000/svg" xmlns:xlink="http://www.w3.org/1999/xlink" width="557" height="386" viewBox="0 0 557 386"><defs><path id="a" d="M.9786.1739h427.0083v269.3059H.9786z"/><path id="c" d="M8.5271.3624C4.113.3624.533 3.9506.533 8.3783v35.9913c0 4.4276 3.58 8.0173 7.9942 8.0173h42.52c4.4158 0 7.9943-3.5897 7.9943-8.0173V8.3783c0-4.4277-3.5785-8.0159-7.9943-8.0159"/><path id="e" d="M8.5271.3624C4.113.3624.533 3.9506.533 8.3783v35.9913c0 4.4276 3.58 8.0173 7.9942 8.0173h42.52c4.4158 0 7.9943-3.5897 7.9943-8.0173V8.3783c0-4.4277-3.5785-8.0159-7.9943-8.0159"/><path id="g" d="M8.5271.3624C4.113.3624.533 3.9506.533 8.3783v35.9913c0 4.4276 3.58 8.0173 7.9942 8.0173h42.52c4.4158 0 7.9943-3.5897 7.9943-8.0173V8.3783c0-4.4277-3.5785-8.0159-7.9943-8.0159"/><path id="i" d="M8.5271.3624C4.113.3624.533 3.9506.533 8.3783v35.9913c0 4.4276 3.58 8.0173 7.9942 8.0173h42.52c4.4158 0 7.9943-3.5897 7.9943-8.0173V8.3783c0-4.4277-3.5785-8.0159-7.9943-8.0159"/><path id="k" d="M8.5271.3624C4.113.3624.533 3.9506.533 8.3783v35.9913c0 4.4276 3.58 8.0173 7.9942 8.0173h42.52c4.4158 0 7.9943-3.5897 7.9943-8.0173V8.3783c0-4.4277-3.5785-8.0159-7.9943-8.0159"/><path id="m" d="M8.5271.3624C4.113.3624.533 3.9506.533 8.3783v35.9913c0 4.4276 3.58 8.0173 7.9942 8.0173h42.52c4.4158 0 7.9943-3.5897 7.9943-8.0173V8.3783c0-4.4277-3.5785-8.0159-7.9943-8.0159"/><path id="o" d="M8.5271.3624C4.113.3624.533 3.9506.533 8.3783v35.9913c0 4.4276 3.58 8.0173 7.9942 8.0173h42.52c4.4158 0 7.9943-3.5897 7.9943-8.0173V8.3783c0-4.4277-3.5785-8.0159-7.9943-8.0159"/><path id="q" d="M8.5271.3624C4.113.3624.533 3.9506.533 8.3783v35.9913c0 4.4276 3.58 8.0173 7.9942 8.0173h42.52c4.4158 0 7.9943-3.5897 7.9943-8.0173V8.3783c0-4.4277-3.5785-8.0159-7.9943-8.0159"/><path id="s" d="M8.5271.3624C4.113.3624.533 3.9506.533 8.3783v35.9913c0 4.4276 3.58 8.0173 7.9942 8.0173h42.52c4.4158 0 7.9943-3.5897 7.9943-8.0173V8.3783c0-4.4277-3.5785-8.0159-7.9943-8.0159"/><path id="u" d="M8.5271.3624C4.113.3624.533 3.9506.533 8.3783v35.9913c0 4.4276 3.58 8.0173 7.9942 8.0173h42.52c4.4158 0 7.9943-3.5897 7.9943-8.0173V8.3783c0-4.4277-3.5785-8.0159-7.9943-8.0159"/><path id="w" d="M8.5271.3624C4.113.3624.533 3.9506.533 8.3783v35.9913c0 4.4276 3.58 8.0173 7.9942 8.0173h42.52c4.4158 0 7.9943-3.5897 7.9943-8.0173V8.3783c0-4.4277-3.5785-8.0159-7.9943-8.0159"/><path id="y" d="M8.5271.8552C4.113.8552.533 4.4448.533 8.871v35.9941c0 4.4262 3.58 8.016 7.9942 8.016h42.52c4.4158 0 7.9943-3.5898 7.9943-8.016V8.8711c0-4.4263-3.5785-8.016-7.9943-8.016"/><path id="A" d="M8.5271.8552C4.113.8552.533 4.4448.533 8.871v35.9941c0 4.4262 3.58 8.016 7.9942 8.016h42.52c4.4158 0 7.9943-3.5898 7.9943-8.016V8.8711c0-4.4263-3.5785-8.016-7.9943-8.016"/><path id="C" d="M8.5271.8552C4.113.8552.533 4.4448.533 8.871v35.9941c0 4.4262 3.58 8.016 7.9942 8.016h42.52c4.4158 0 7.9943-3.5898 7.9943-8.016V8.8711c0-4.4263-3.5785-8.016-7.9943-8.016"/><path id="E" d="M8.5271.8552C4.113.8552.533 4.4448.533 8.871v35.9941c0 4.4262 3.58 8.016 7.9942 8.016h42.52c4.4158 0 7.9943-3.5898 7.9943-8.016V8.8711c0-4.4263-3.5785-8.016-7.9943-8.016"/><path id="G" d="M8.5271.8552C4.113.8552.533 4.4448.533 8.871v35.9941c0 4.4262 3.58 8.016 7.9942 8.016h42.52c4.4158 0 7.9943-3.5898 7.9943-8.016V8.8711c0-4.4263-3.5785-8.016-7.9943-8.016"/><path id="I" d="M8.5271.8552C4.113.8552.533 4.4448.533 8.871v35.9941c0 4.4262 3.58 8.016 7.9942 8.016h42.52c4.4158 0 7.9943-3.5898 7.9943-8.016V8.8711c0-4.4263-3.5785-8.016-7.9943-8.016"/><path id="K" d="M8.5271.8552C4.113.8552.533 4.4448.533 8.871v35.9941c0 4.4262 3.58 8.016 7.9942 8.016h42.52c4.4158 0 7.9943-3.5898 7.9943-8.016V8.8711c0-4.4263-3.5785-8.016-7.9943-8.016"/><path id="M" d="M8.5271.8552C4.113.8552.533 4.4448.533 8.871v35.9941c0 4.4262 3.58 8.016 7.9942 8.016h42.52c4.4158 0 7.9943-3.5898 7.9943-8.016V8.8711c0-4.4263-3.5785-8.016-7.9943-8.016"/><path id="O" d="M8.5271.8552C4.113.8552.533 4.4448.533 8.871v35.9941c0 4.4262 3.58 8.016 7.9942 8.016h42.52c4.4158 0 7.9943-3.5898 7.9943-8.016V8.8711c0-4.4263-3.5785-8.016-7.9943-8.016"/><path id="Q" d="M8.5271.8552C4.113.8552.533 4.4448.533 8.871v35.9941c0 4.4262 3.58 8.016 7.9942 8.016h42.52c4.4158 0 7.9943-3.5898 7.9943-8.016V8.8711c0-4.4263-3.5785-8.016-7.9943-8.016"/><path id="S" d="M8.5271.8552C4.113.8552.533 4.4448.533 8.871v35.9941c0 4.4262 3.58 8.016 7.9942 8.016h42.52c4.4158 0 7.9943-3.5898 7.9943-8.016V8.8711c0-4.4263-3.5785-8.016-7.9943-8.016"/></defs><g fill="none" fill-rule="evenodd"><g transform="translate(128.6203 115.5197)"><mask id="b" fill="#fff"><use xlink:href="#a"/></mask><path fill="#E2A7AE" d="M427.9906 16.938c0-9.259-7.5045-16.7641-16.7609-16.7641H17.7395C8.483.1739.9785 7.679.9785 16.9379v235.7778c0 9.259 7.5046 16.764 16.761 16.764h393.4902c9.2564 0 16.761-7.505 16.761-16.764V16.938z" mask="url(#b)"/></g><path stroke="#1B2230" stroke-width=".5" d="M523.1842 139.3482s-5.189-.2007-5.189 4.3277c0 3.7725 3.2634 5.1163 5.1178 5.8708a710.065 710.065 0 003.807 1.5375c3.0272 1.2812 5.8579 3.7383 6.013 7.2802.0527 1.2285-.1138 1.8179-.212 2.289-.0968.3773-.1196.531.0868.6435.2064.111.4995-.2662.4995-.2662s3.2207-3.4892 3.4171-8.6183c.1793-4.6793-3.612-12.7937-13.5402-13.0642zM523.1404 165.4746s5.1889.2007 5.1889-4.3277c0-3.7725-3.2634-5.1163-5.1178-5.8708-2.1718-.884-3.807-1.5375-3.807-1.5375-3.0271-1.2812-5.8579-3.7383-6.013-7.2802-.0526-1.2286.1139-1.818.212-2.2891.0968-.3773.1196-.531-.0867-.6435-.2064-.111-.4996.2662-.4996.2662s-3.2207 3.4892-3.417 8.6184c-.1794 4.6793 3.612 12.7937 13.5402 13.0642z"/><path fill="#444D74" d="M493.0122 76.938c0-9.259-7.5045-16.7641-16.761-16.7641H82.761c-9.2564 0-16.7609 7.5051-16.7609 16.764v235.7778c0 9.259 7.5045 16.764 16.761 16.764h393.4902c9.2564 0 16.7609-7.505 16.7609-16.764V76.938z"/><path stroke="#ECECEB" stroke-width=".4" d="M459.5872 83.8285s-5.189-.2007-5.189 4.3277c0 3.7725 3.2634 5.1164 5.1178 5.8709 2.1718.884 3.807 1.5374 3.807 1.5374 3.0272 1.2813 5.8579 3.7384 6.013 7.2802.0527 1.2286-.1138 1.818-.212 2.2891-.0968.3773-.1196.531.0868.6435.2063.111.4995-.2662.4995-.2662s3.2207-3.4892 3.417-8.6184c.1794-4.6793-3.612-12.7937-13.5401-13.0642zM459.5433 109.955s5.189.2007 5.189-4.3277c0-3.7725-3.2634-5.1164-5.1178-5.8709-2.1718-.884-3.807-1.5375-3.807-1.5375-3.0272-1.2812-5.8579-3.7383-6.013-7.2802-.0527-1.2285.1138-1.8179.212-2.289.0968-.3773.1196-.531-.0868-.6435-.2063-.111-.4995.2662-.4995.2662s-3.2207 3.4892-3.417 8.6183c-.1794 4.6793 3.612 12.7938 13.5401 13.0642z"/><g><g transform="translate(95 160)"><mask id="d" fill="#fff"><use xlink:href="#c"/></mask><path stroke="#1D1D1B" stroke-width=".333" d="M.5334 14.3845h17.7057l3.1243 3.1327" mask="url(#d)"/></g><g transform="translate(95 160)"><mask id="f" fill="#fff"><use xlink:href="#e"/></mask><path stroke="#1D1D1B" stroke-width=".333" d="M59.0426 14.3845H41.3369s-2.0829 2.2733-3.1243 3.316l-.1843 16.2653H21.364V17.5774h8.3314v-5.5435l4.1672-4.177" mask="url(#f)"/></g><g transform="translate(95 160)"><mask id="h" fill="#fff"><use xlink:href="#g"/></mask><path stroke="#1D1D1B" stroke-width=".333" d="M.5334 37.2838h17.7057l3.1243-3.1327" mask="url(#h)"/></g><g transform="translate(95 160)"><mask id="j" fill="#fff"><use xlink:href="#i"/></mask><path stroke="#1D1D1B" stroke-width=".333" d="M59.0426 37.2838H41.3369s-2.3243-2.3306-3.3658-3.3734" mask="url(#j)"/></g><g transform="translate(95 160)"><mask id="l" fill="#fff"><use xlink:href="#k"/></mask><path stroke="#1D1D1B" stroke-width=".333" d="M18.1779.4882l11.5728 11.7717" mask="url(#l)"/></g><g transform="translate(95 160)"><mask id="n" fill="#fff"><use xlink:href="#m"/></mask><path stroke="#1D1D1B" stroke-width=".333" d="M.5334 25.6117h21.0143" mask="url(#n)"/></g><g transform="translate(95 160)"><mask id="p" fill="#fff"><use xlink:href="#o"/></mask><path stroke="#1D1D1B" stroke-width=".333" d="M38.028 25.6117h21.0143" mask="url(#p)"/></g><g transform="translate(95 160)"><mask id="r" fill="#fff"><use xlink:href="#q"/></mask><path stroke="#1D1D1B" stroke-width=".333" d="M29.696 34.2273v6.0047l12.4986 12.5309" mask="url(#r)"/></g><g transform="translate(95 160)"><mask id="t" fill="#fff"><use xlink:href="#s"/></mask><path stroke="#1D1D1B" stroke-width=".333" d="M36.9866 4.7253l4.1657-4.177" mask="url(#t)"/></g><g transform="translate(95 160)"><mask id="v" fill="#fff"><use xlink:href="#u"/></mask><path stroke="#1D1D1B" stroke-width=".333" d="M29.6763 40.2326l-3.3472 3.3562" mask="url(#v)"/></g><g transform="translate(95 160)"><mask id="x" fill="#fff"><use xlink:href="#w"/></mask><path stroke="#1D1D1B" stroke-width=".333" d="M22.887 46.9793l-5.2071 5.2227" mask="url(#x)"/></g></g><g><path stroke="#1D1D1B" stroke-width=".264" d="M104 160.1078c-4.4054 0-7.9757 3.5743-7.9757 7.9817v35.839c0 4.4073 3.5703 7.9817 7.9757 7.9817h42.4211c4.4055 0 7.9757-3.5744 7.9757-7.9817v-35.839c0-4.4074-3.5702-7.9817-7.9757-7.9817H104z"/><path fill="#FEFEFE" d="M427.6305 17.0376c0-9.2767-7.5154-16.7963-16.7852-16.7963h-394.06C7.5155.2413.0001 7.761.0001 17.0376v236.2307c0 9.2768 7.5154 16.7963 16.7852 16.7963h394.06c9.2698 0 16.7852-7.5195 16.7852-16.7963V17.0376z"/><path stroke="#1D1D1B" stroke-width=".4" d="M394.157 23.941s-5.1964-.2011-5.1964 4.336c0 3.7797 3.2681 5.1262 5.1252 5.8821a710.8847 710.8847 0 003.8126 1.5404c3.0315 1.2837 5.8663 3.7455 6.0216 7.2942.0528 1.231-.114 1.8214-.2123 2.2935-.097.378-.1198.532.087.6447.2066.1113.5002-.2667.5002-.2667s3.2253-3.4959 3.422-8.6349c.1796-4.6883-3.6173-12.8183-13.5598-13.0893zM394.1132 50.1175s5.1964.201 5.1964-4.336c0-3.7798-3.268-5.1262-5.1252-5.8822-2.1749-.8857-3.8125-1.5404-3.8125-1.5404-3.0315-1.2837-5.8663-3.7455-6.0217-7.2942-.0527-1.2309.114-1.8214.2124-2.2935.0969-.378.1197-.532-.087-.6447-.2066-.1112-.5002.2667-.5002.2667s-3.2254 3.496-3.422 8.635c-.1796 4.6883 3.6172 12.8183 13.5598 13.0893z"/></g><g><g transform="translate(30 108)"><mask id="z" fill="#fff"><use xlink:href="#y"/></mask><path stroke="#1D1D1B" stroke-width=".333" d="M.5334 14.8797h17.7057l3.1243 3.1327" mask="url(#z)"/></g><g transform="translate(30 108)"><mask id="B" fill="#fff"><use xlink:href="#A"/></mask><path stroke="#1D1D1B" stroke-width=".333" d="M59.0426 14.8797H41.3369s-2.0829 2.2732-3.1243 3.316l-.1843 16.2653H21.364V18.0726h8.3314V12.529l4.1672-4.177" mask="url(#B)"/></g><g transform="translate(30 108)"><mask id="D" fill="#fff"><use xlink:href="#C"/></mask><path stroke="#1D1D1B" stroke-width=".333" d="M.5334 37.7763h17.7057l3.1243-3.1328" mask="url(#D)"/></g><g transform="translate(30 108)"><mask id="F" fill="#fff"><use xlink:href="#E"/></mask><path stroke="#1D1D1B" stroke-width=".333" d="M59.0426 37.7763H41.3369s-2.3243-2.3306-3.3658-3.3734" mask="url(#F)"/></g><g transform="translate(30 108)"><mask id="H" fill="#fff"><use xlink:href="#G"/></mask><path stroke="#1D1D1B" stroke-width=".333" d="M18.1779.9834l11.5728 11.7717" mask="url(#H)"/></g><g transform="translate(30 108)"><mask id="J" fill="#fff"><use xlink:href="#I"/></mask><path stroke="#1D1D1B" stroke-width=".333" d="M.5334 26.1041h21.0143" mask="url(#J)"/></g><g transform="translate(30 108)"><mask id="L" fill="#fff"><use xlink:href="#K"/></mask><path stroke="#1D1D1B" stroke-width=".333" d="M38.028 26.1041h21.0143" mask="url(#L)"/></g><g transform="translate(30 108)"><mask id="N" fill="#fff"><use xlink:href="#M"/></mask><path stroke="#1D1D1B" stroke-width=".333" d="M29.696 34.7197v6.0048l12.4986 12.5309" mask="url(#N)"/></g><g transform="translate(30 108)"><mask id="P" fill="#fff"><use xlink:href="#O"/></mask><path stroke="#1D1D1B" stroke-width=".333" d="M36.9866 5.2178l4.1657-4.177" mask="url(#P)"/></g><g transform="translate(30 108)"><mask id="R" fill="#fff"><use xlink:href="#Q"/></mask><path stroke="#1D1D1B" stroke-width=".333" d="M29.6763 40.7251l-3.3472 3.3561" mask="url(#R)"/></g><g transform="translate(30 108)"><mask id="T" fill="#fff"><use xlink:href="#S"/></mask><path stroke="#1D1D1B" stroke-width=".333" d="M22.887 47.4745l-5.2071 5.2227" mask="url(#T)"/></g></g><path stroke="#1D1D1B" stroke-width=".264" d="M38.9248 109C34.5475 109 31 112.588 31 117.0121v35.9758C31 157.412 34.5475 161 38.9248 161h42.1504C85.4525 161 89 157.412 89 152.9879V117.012C89 112.588 85.4525 109 81.0752 109H38.9248z"/></g></svg>